# xmcd
#
# Track frame offsets: 
#        300
#        33389
#        53606
#        92130
#        149838
#        169358
#        230953
#        251741
#        283702
#        320471
#
# Disc length: 4635 seconds
#
# Revision: 0
# Processed by: cddbd v1.5.2PL0 Copyright (c) Steve Scherf et al.
# Submitted via: ExactAudioCopy v1.0b1
#
DISCID=9c12170a
DTITLE=Freddie King - Texas In My Blues
DYEAR=2008
DGENRE=General Blues
TTITLE0=Mojo Boogie
TTITLE1=Messin' With The Kid
TTITLE2=Boogie Chillun
TTITLE3=Have You Ever Loved A Woman
TTITLE4=Going Down
TTITLE5=Stormy Monday
TTITLE6=Woman Across The River
TTITLE7=Signals Of Love - TV Mama
TTITLE8=Let The Good Times Roll
TTITLE9=Sweet Home Chicago
EXTD=
EXTT0=
EXTT1=
EXTT2=
EXTT3=
EXTT4=
EXTT5=
EXTT6=
EXTT7=
EXTT8=
EXTT9=
PLAYORDER=
